<?xml version="1.0" encoding="UTF-8" standalone="no"?>
<svg
   xmlns:dc="http://purl.org/dc/elements/1.1/"
   xmlns:cc="http://creativecommons.org/ns#"
   xmlns:rdf="http://www.w3.org/1999/02/22-rdf-syntax-ns#"
   xmlns:svg="http://www.w3.org/2000/svg"
   xmlns="http://www.w3.org/2000/svg"
   xmlns:sodipodi="http://sodipodi.sourceforge.net/DTD/sodipodi-0.dtd"
   xmlns:inkscape="http://www.inkscape.org/namespaces/inkscape"
   inkscape:version="1.0 (4035a4f, 2020-05-01)"
   height="512"
   width="512"
   sodipodi:docname="jucyFlutteringIcon.svg"
   xml:space="preserve"
   enable-background="new 0 0 451.7 451.7"
   viewBox="0 0 511.99999 511.99999"
   y="0px"
   x="0px"
   id="Layer_1"
   version="1.1"><metadata
     id="metadata870"><rdf:RDF><cc:Work
         rdf:about=""><dc:format>image/svg+xml</dc:format><dc:type
           rdf:resource="http://purl.org/dc/dcmitype/StillImage" /><dc:title></dc:title></cc:Work></rdf:RDF></metadata><defs
     id="defs868" /><sodipodi:namedview
     inkscape:current-layer="g928"
     inkscape:window-maximized="0"
     inkscape:window-y="23"
     inkscape:window-x="0"
     inkscape:cy="253.02353"
     inkscape:cx="117.68554"
     inkscape:zoom="1.2861282"
     fit-margin-bottom="0"
     fit-margin-right="0"
     fit-margin-left="0"
     fit-margin-top="0"
     showgrid="true"
     id="namedview866"
     inkscape:window-height="1176"
     inkscape:window-width="2172"
     inkscape:pageshadow="2"
     inkscape:pageopacity="0"
     guidetolerance="10"
     gridtolerance="10"
     objecttolerance="10"
     borderopacity="1"
     bordercolor="#666666"
     pagecolor="#ffffff"
     inkscape:document-rotation="0"><inkscape:grid
       id="grid849"
       type="xygrid" /></sodipodi:namedview><g
     id="g928"><rect
       y="0"
       x="0"
       height="512"
       width="512"
       id="rect847"
       style="fill:none;stroke-width:0.491339;stroke-linecap:round;stroke:none" /><path
       d="m 255.99999,481.08085 c -124.17159,0 -225.001462,-100.98866 -225.001462,-225.00146 0,-124.01281 100.988662,-225.160252 225.001462,-225.160252 124.0128,0 225.00146,100.988662 225.00146,225.001462 0,124.0128 -100.82987,225.16025 -225.00146,225.16025 z m 0,-435.076928 c -115.75587,0 -210.075465,94.160808 -210.075465,210.075468 0,115.91465 94.160805,210.07546 210.075465,210.07546 115.91466,0 210.07547,-94.16081 210.07547,-210.07546 0,-115.91466 -94.16081,-210.075468 -210.07547,-210.075468 z"
       id="path845"
       style="fill:#16b9fd;fill-opacity:1;stroke-width:1.58787" /><path
       d="m 433.68287,248.4576 c 3.81089,0 7.62178,-1.42908 10.32116,-4.12847 3.01696,-3.01695 4.28726,-6.98663 3.8109,-11.1151 -4.12847,-35.25076 -18.10174,-68.75486 -40.17316,-96.7014 -2.69939,-3.49332 -6.51028,-5.23998 -10.47996,-5.23998 -3.6521,0 -7.14542,1.58787 -9.84481,4.28725 L 278.70656,244.01156 c -1.74666,1.74666 -0.47636,4.60483 1.90545,4.60483 z"
       id="path847"
       style="fill:#03569b;fill-opacity:1;stroke-width:1.58787" /><path
       d="m 397.16181,380.88613 v 0 c 4.12847,0 7.78057,-1.90545 10.47996,-5.23998 22.07142,-27.94655 35.8859,-61.45065 40.17316,-96.70141 0.47636,-4.12846 -0.95273,-8.09814 -3.81089,-11.1151 -2.69939,-2.69938 -6.51028,-4.12847 -10.32117,-4.12847 H 280.61201 c -2.38181,0 -3.49332,2.85817 -1.90545,4.60483 L 387.317,376.91645 c 2.69939,2.3818 6.19271,3.96968 9.84481,3.96968 z"
       id="path849"
       style="fill:#03569b;fill-opacity:1;stroke-width:1.58787" /><path
       d="m 267.59146,444.08343 v 0 c 2.85817,2.85817 6.82785,4.28726 11.27389,3.65211 35.40954,-4.12847 68.91364,-17.94296 96.7014,-40.01438 3.33453,-2.54059 5.08119,-6.35148 5.23998,-10.63874 0,-3.81089 -1.58787,-7.463 -4.44604,-10.16238 L 268.2266,278.78596 c -1.74665,-1.74666 -4.60482,-0.47636 -4.60482,1.90544 v 153.54723 c 0,3.6521 1.27029,7.30421 3.96968,9.8448 z"
       id="path851"
       style="fill:#317ab0;fill-opacity:1;stroke-width:1.58787" /><path
       d="m 114.99696,131.11386 c -4.12847,0 -7.78058,1.90545 -10.47996,5.23998 -22.071419,27.94655 -35.885906,61.45064 -40.17316,96.7014 -0.476362,4.12847 0.952723,8.09815 3.810893,11.11511 2.699382,2.69938 6.510275,4.12846 10.321168,4.12846 H 231.54676 c 2.38181,0 3.49332,-2.85817 1.90545,-4.60482 L 124.84176,135.40112 c -2.69938,-2.69939 -6.1927,-4.28726 -9.8448,-4.28726 z"
       id="path853"
       style="fill:#16b9fd;fill-opacity:1;stroke-width:1.58787" /><path
       d="m 244.56731,67.916555 c -2.85817,-2.858169 -6.82785,-4.287254 -11.27389,-3.652105 -35.25076,4.128467 -68.75486,17.942953 -96.7014,40.01437 -3.33454,2.5406 -5.08119,6.35149 -5.23998,10.63875 0,3.81089 1.58787,7.46299 4.44604,10.16238 l 108.13408,108.13408 c 1.74666,1.74666 4.60483,0.47636 4.60483,-1.90545 V 77.761362 c 0,-3.652106 -1.42908,-7.145424 -3.96968,-9.844807 z"
       id="path855"
       style="fill:#39cefd;fill-opacity:1;stroke-width:1.58787" /><path
       d="m 380.96552,114.91757 c 0,-4.12847 -1.90545,-7.78058 -5.23998,-10.47996 -27.94655,-22.07142 -61.45065,-35.885906 -96.70141,-40.17316 -4.12846,-0.476362 -8.09814,0.952723 -11.1151,3.810892 -2.69938,2.699383 -4.12847,6.510276 -4.12847,10.321168 v 153.07086 c 0,2.38181 2.85817,3.49332 4.60483,1.90545 L 376.99584,124.76237 c 2.3818,-2.69938 3.96968,-6.1927 3.96968,-9.8448 z"
       id="path857"
       style="fill:#39cefd;fill-opacity:1;stroke-width:1.58787" /><path
       d="M 231.54676,263.54239 H 78.475901 c -3.810893,0 -7.621786,1.42908 -10.321168,4.12846 -3.016957,3.01696 -4.287255,6.98664 -3.810893,11.11511 4.128467,35.25076 18.101741,68.75485 40.17316,96.7014 2.69938,3.49332 6.51028,5.23998 10.47996,5.23998 3.6521,0 7.14542,-1.58787 9.8448,-4.28726 0,0 0,0 0,0 L 233.45221,267.82964 c 1.58787,-1.42908 0.47636,-4.28725 -1.90545,-4.28725 z"
       id="path859"
       style="fill:#16b9fd;fill-opacity:1;stroke-width:1.58787" /><path
       d="M 244.09095,278.62717 135.79808,386.92004 c -2.69938,2.69938 -4.44604,6.35149 -4.44604,10.16238 0,4.28726 1.90544,8.09815 5.23998,10.63874 27.94654,22.07142 61.29185,35.88591 96.7014,40.01438 4.28726,0.47636 8.25693,-0.79394 11.27389,-3.65211 2.5406,-2.54059 3.96968,-6.03391 3.96968,-10.00359 0,0 0,0 0,0 V 280.53262 c 0,-2.38181 -2.85817,-3.49332 -4.44604,-1.90545 z"
       id="path861"
       style="fill:#317ab0;fill-opacity:1;stroke-width:1.58787" /></g></svg>
